<svg width="100%" height="100%" viewBox="0 0 480 852" version="1.1" xmlns="http://www.w3.org/2000/svg" xmlns:xlink="http://www.w3.org/1999/xlink" xml:space="preserve" style="fill-rule:evenodd;clip-rule:evenodd;stroke-linejoin:round;stroke-miterlimit:1.41421;"><path d="M362.647,117.791c0,4.316 3.499,7.814 7.814,7.814c4.317,0 7.815,-3.498 7.815,-7.814c0,-4.317 -3.498,-7.815 -7.815,-7.815c-4.315,0 -7.814,3.498 -7.814,7.815" style="fill:#fbb03b;fill-rule:nonzero;"/><path d="M40.419,481.825c0,2.549 2.074,4.624 4.624,4.624c2.549,0 4.624,-2.075 4.624,-4.624c0,-2.549 -2.075,-4.625 -4.624,-4.625c-2.55,0 -4.624,2.076 -4.624,4.625m-6.071,0c0,-5.898 4.797,-10.697 10.695,-10.697c5.898,0 10.695,4.799 10.695,10.697c0,5.897 -4.797,10.695 -10.695,10.695c-5.898,0 -10.695,-4.798 -10.695,-10.695" style="fill:#fbb03b;fill-rule:nonzero;"/><path d="M366.202,781.575c-6.806,-6.897 -6.733,-18.007 0.165,-24.813l12.324,12.489l-12.489,12.324Z" style="fill:#6ccbc3;fill-rule:nonzero;"/><path d="M389.731,140.709c6.093,3.74 10.76,9.803 12.555,17.306l-27.166,6.502l14.611,-23.808Z" style="fill:#ed565c;fill-rule:nonzero;"/><path d="M94.587,164.403c1.401,1.401 1.401,3.673 0,5.074c-1.401,1.401 -3.673,1.401 -5.075,0l-20.142,-20.142c-1.401,-1.401 -1.401,-3.673 0,-5.075c1.401,-1.401 3.673,-1.401 5.074,0l20.143,20.143Z" style="fill:#ed565c;fill-rule:nonzero;"/><path d="M108.246,516.535c1.401,1.401 1.401,3.673 0,5.074c-1.401,1.401 -3.673,1.401 -5.074,0l-11.119,-11.119c-1.402,-1.401 -1.402,-3.673 0,-5.074c1.401,-1.402 3.673,-1.402 5.074,0l11.119,11.119Z" style="fill:#ed565c;fill-rule:nonzero;"/></svg>