<svg width="100%" height="100%" viewBox="0 0 480 852" version="1.1" xmlns="http://www.w3.org/2000/svg" xmlns:xlink="http://www.w3.org/1999/xlink" xml:space="preserve" style="fill-rule:evenodd;clip-rule:evenodd;stroke-linejoin:round;stroke-miterlimit:1.41421;"><path d="M58.837,504.395c3.064,-3.064 3.064,-8.03 0,-11.093c-3.064,-3.064 -8.03,-3.064 -11.093,0c-3.064,3.063 -3.064,8.029 0,11.093c3.063,3.064 8.029,3.064 11.093,0" style="fill:#fbb03b;fill-rule:nonzero;"/><path d="M446.514,274.239c1.81,-1.81 1.81,-4.755 0,-6.564c-1.809,-1.809 -4.755,-1.81 -6.564,-0.001c-1.809,1.81 -1.809,4.756 0,6.565c1.809,1.81 4.755,1.809 6.564,0m4.31,4.309c-4.187,4.187 -10.998,4.187 -15.184,0.001c-4.186,-4.187 -4.186,-10.997 0,-15.185c4.186,-4.185 10.997,-4.185 15.184,0.002c4.186,4.186 4.186,10.996 0,15.182" style="fill:#fbb03b;fill-rule:nonzero;"/><path d="M205.163,100.633c-0.064,9.727 -8.002,17.56 -17.73,17.495l0.118,-17.612l17.612,0.117Z" style="fill:#6ccbc3;fill-rule:nonzero;"/><path d="M55.881,468.903c-1.671,-6.979 -0.679,-14.596 3.372,-21.195l23.898,14.668l-27.27,6.527Z" style="fill:#ed565c;fill-rule:nonzero;"/><path d="M111.933,756.512c1.407,-1.406 3.687,-1.406 5.094,0c1.407,1.406 1.407,3.687 0,5.093l-20.219,20.22c-1.407,1.407 -3.687,1.407 -5.094,0c-1.406,-1.407 -1.406,-3.687 0,-5.093l20.219,-20.22Z" style="fill:#ed565c;fill-rule:nonzero;"/><path d="M429.643,201.222c1.407,-1.406 3.687,-1.406 5.094,0c1.407,1.406 1.407,3.687 0,5.093l-11.161,11.163c-1.407,1.406 -3.687,1.406 -5.094,0c-1.406,-1.407 -1.406,-3.687 0,-5.094l11.161,-11.162Z" style="fill:#ed565c;fill-rule:nonzero;"/></svg>