<svg width="100%" height="100%" viewBox="0 0 480 852" version="1.1" xmlns="http://www.w3.org/2000/svg" xmlns:xlink="http://www.w3.org/1999/xlink" xml:space="preserve" style="fill-rule:evenodd;clip-rule:evenodd;stroke-linejoin:round;stroke-miterlimit:1.41421;"><path d="M54.422,294.2c3.057,-3.056 3.057,-8.012 0,-11.069c-3.056,-3.057 -8.012,-3.057 -11.068,0c-3.057,3.057 -3.057,8.013 0,11.069c3.056,3.056 8.012,3.056 11.068,0" style="fill:#6ccbc3;fill-rule:nonzero;"/><path d="M442.621,401.956c1.806,-1.806 1.806,-4.743 0,-6.549c-1.806,-1.806 -4.744,-1.807 -6.549,-0.001c-1.806,1.805 -1.806,4.745 0,6.55c1.805,1.806 4.743,1.806 6.549,0m4.3,4.299c-4.177,4.178 -10.973,4.178 -15.149,0.001c-4.178,-4.177 -4.178,-10.972 0,-15.15c4.176,-4.177 10.972,-4.177 15.149,0.001c4.177,4.177 4.177,10.972 0,15.148" style="fill:#a1ccd4;fill-rule:nonzero;"/><path d="M208.715,118.836c-0.065,9.706 -7.985,17.521 -17.69,17.456l0.117,-17.573l17.573,0.117Z" style="fill:#6ccbc3;fill-rule:nonzero;"/><path d="M51.472,258.787c-1.666,-6.964 -0.677,-14.563 3.365,-21.148l23.845,14.635l-27.21,6.513Z" style="fill:#ed565c;fill-rule:nonzero;"/><path d="M156.983,454.089c1.404,-1.403 3.679,-1.403 5.082,0c1.404,1.404 1.404,3.679 0,5.082l-20.173,20.175c-1.404,1.403 -3.679,1.403 -5.083,0c-1.403,-1.404 -1.403,-3.679 0,-5.082l20.174,-20.175Z" style="fill:#ed565c;fill-rule:nonzero;"/><path d="M423.628,362.93c1.403,-1.403 3.679,-1.403 5.082,0c1.403,1.404 1.403,3.679 0,5.082l-11.136,11.137c-1.404,1.404 -3.679,1.404 -5.083,0c-1.403,-1.403 -1.403,-3.679 0,-5.082l11.137,-11.137Z" style="fill:#ed565c;fill-rule:nonzero;"/></svg>