<svg width="100%" height="100%" viewBox="0 0 480 852" version="1.1" xmlns="http://www.w3.org/2000/svg" xmlns:xlink="http://www.w3.org/1999/xlink" xml:space="preserve" style="fill-rule:evenodd;clip-rule:evenodd;stroke-linejoin:round;stroke-miterlimit:1.41421;"><path d="M121.768,117.791c0,4.316 -3.498,7.814 -7.814,7.814c-4.316,0 -7.815,-3.498 -7.815,-7.814c0,-4.316 3.499,-7.815 7.815,-7.815c4.316,0 7.814,3.499 7.814,7.815" style="fill:#fbb03b;fill-rule:nonzero;"/><path d="M391.592,460.523c-2.55,0 -4.625,2.076 -4.625,4.625c0,2.55 2.075,4.624 4.625,4.624c2.549,0 4.623,-2.074 4.623,-4.624c0,-2.549 -2.074,-4.625 -4.623,-4.625m0,15.32c-5.898,0 -10.697,-4.798 -10.697,-10.695c0,-5.898 4.799,-10.696 10.697,-10.696c5.897,0 10.695,4.798 10.695,10.696c0,5.897 -4.798,10.695 -10.695,10.695" style="fill:#fbb03b;fill-rule:nonzero;"/><path d="M99.429,464.127c6.806,-6.898 6.733,-18.008 -0.165,-24.814l-12.324,12.49l12.489,12.324Z" style="fill:#6ccbc3;fill-rule:nonzero;"/><path d="M94.684,140.709c-6.093,3.74 -10.759,9.803 -12.555,17.306l27.167,6.502l-14.612,-23.808Z" style="fill:#3e97d1;fill-rule:nonzero;"/><path d="M362.51,155.021c-1.401,1.401 -1.401,3.673 0,5.075c1.401,1.401 3.673,1.401 5.075,0l20.142,-20.143c1.401,-1.401 1.401,-3.673 0,-5.074c-1.401,-1.401 -3.673,-1.401 -5.074,0l-20.143,20.142Z" style="fill:#5686fd;fill-rule:nonzero;"/><path d="M328.388,499.858c-1.401,1.401 -1.401,3.673 0,5.075c1.401,1.401 3.673,1.401 5.074,0l11.119,-11.12c1.402,-1.401 1.402,-3.673 0,-5.074c-1.401,-1.401 -3.673,-1.401 -5.074,0l-11.119,11.119Z" style="fill:#ed565c;fill-rule:nonzero;"/></svg>