<svg width="100%" height="100%" viewBox="0 0 480 852" version="1.1" xmlns="http://www.w3.org/2000/svg" xmlns:xlink="http://www.w3.org/1999/xlink" xml:space="preserve" style="fill-rule:evenodd;clip-rule:evenodd;stroke-linejoin:round;stroke-miterlimit:1.41421;"><path d="M396.302,442.159c-3.065,3.065 -3.065,8.033 0,11.097c3.064,3.065 8.032,3.065 11.097,0c3.064,-3.064 3.064,-8.032 0,-11.097c-3.065,-3.064 -8.033,-3.064 -11.097,0" style="fill:#fbb03b;fill-rule:nonzero;"/><path d="M53.219,355.71c-1.81,1.811 -1.81,4.756 0,6.566c1.811,1.81 4.757,1.811 6.567,0.001c1.81,-1.81 1.81,-4.757 0,-6.567c-1.81,-1.811 -4.756,-1.81 -6.567,0m-4.311,-4.311c4.188,-4.188 11.001,-4.188 15.189,0c4.188,4.188 4.188,11.001 0,15.189c-4.188,4.187 -11.001,4.187 -15.189,-0.001c-4.187,-4.187 -4.187,-11 0,-15.188" style="fill:#fbb03b;fill-rule:nonzero;"/><path d="M141.274,777.861c0.064,-9.731 8.005,-17.566 17.735,-17.501l-0.117,17.618l-17.618,-0.117Z" style="fill:#6ccbc3;fill-rule:nonzero;"/><path d="M397.52,519.267c1.671,6.981 0.679,14.6 -3.373,21.201l-23.905,-14.672l27.278,-6.529Z" style="fill:#ed565c;fill-rule:nonzero;"/><path d="M341.295,126.79c-1.407,1.407 -3.689,1.407 -5.096,0c-1.407,-1.407 -1.407,-3.689 0,-5.096l20.226,-20.225c1.407,-1.407 3.688,-1.407 5.095,0c1.407,1.407 1.407,3.688 0,5.095l-20.225,20.226Z" style="fill:#ed565c;fill-rule:nonzero;"/><path d="M70.096,428.75c-1.407,1.407 -3.688,1.407 -5.095,0c-1.407,-1.407 -1.407,-3.689 -0.001,-5.096l11.166,-11.164c1.407,-1.408 3.687,-1.408 5.094,0c1.407,1.406 1.407,3.687 0,5.094l-11.164,11.166Z" style="fill:#ed565c;fill-rule:nonzero;"/></svg>