<svg xmlns="http://www.w3.org/2000/svg">
    <symbol id="timepot" viewBox="0 0 24 24">
        <path d="M17.002,8.039c-0.535,0 -0.96,0.425 -0.96,0.961c0,3.899 -3.161,7.06 -7.06,7.06c-3.9,0 -7.06,-3.161 -7.06,-7.06c0,-0.536 -0.425,-0.961 -0.961,-0.961c-0.536,0 -0.961,0.425 -0.961,0.961c0,4.953 4.029,9 9,9c4.953,0 9,-4.029 9,-9c-0.037,-0.517 -0.461,-0.961 -0.998,-0.961Z" /><path d="M8.963,9.869c-0.221,0 -0.443,-0.092 -0.609,-0.259l-4.085,-4.084c-0.333,-0.333 -0.333,-0.887 0,-1.22c0.167,-0.166 0.388,-0.259 0.61,-0.259c0.222,0 0.444,0.093 0.61,0.259l3.844,3.844l3.511,0c0.481,0 0.869,0.388 0.869,0.869c0,0.481 -0.388,0.869 -0.869,0.869l-3.881,0l0,-0.019Z"/>    
    <symbol id="twitter" viewBox="0 0 24 24">
        <path d="M24 4.557c-.883.392-1.832.656-2.828.775 1.017-.609 1.798-1.574 2.165-2.724-.951.564-2.005.974-3.127 1.195-.897-.957-2.178-1.555-3.594-1.555-3.179 0-5.515 2.966-4.797 6.045-4.091-.205-7.719-2.165-10.148-5.144-1.29 2.213-.669 5.108 1.523 6.574-.806-.026-1.566-.247-2.229-.616-.054 2.281 1.581 4.415 3.949 4.89-.693.188-1.452.232-2.224.084.626 1.956 2.444 3.379 4.6 3.419-2.07 1.623-4.678 2.348-7.29 2.04 2.179 1.397 4.768 2.212 7.548 2.212 9.142 0 14.307-7.721 13.995-14.646.962-.695 1.797-1.562 2.457-2.549z"/>
    </symbol>
    <symbol id="facebook" viewBox="0 0 24 24">
        <path d="M22.675 0h-21.35c-.732 0-1.325.593-1.325 1.325v21.351c0 .731.593 1.324 1.325 1.324h11.495v-9.294h-3.128v-3.622h3.128v-2.671c0-3.1 1.893-4.788 4.659-4.788 1.325 0 2.463.099 2.795.143v3.24l-1.918.001c-1.504 0-1.795.715-1.795 1.763v2.313h3.587l-.467 3.622h-3.12v9.293h6.116c.73 0 1.323-.593 1.323-1.325v-21.35c0-.732-.593-1.325-1.325-1.325z"/>
    </symbol>
    <symbol id="linkedin" viewBox="0 0 24 24">
        <path d="M19 0h-14c-2.761 0-5 2.239-5 5v14c0 2.761 2.239 5 5 5h14c2.762 0 5-2.239 5-5v-14c0-2.761-2.238-5-5-5zm-11 19h-3v-11h3v11zm-1.5-12.268c-.966 0-1.75-.79-1.75-1.764s.784-1.764 1.75-1.764 1.75.79 1.75 1.764-.783 1.764-1.75 1.764zm13.5 12.268h-3v-5.604c0-3.368-4-3.113-4 0v5.604h-3v-11h3v1.765c1.396-2.586 7-2.777 7 2.476v6.759z"/>
    </symbol>
    <symbol id="phone" viewBox="0 0 24 24">
        <path d="M20 22.621l-3.521-6.795c-.008.004-1.974.97-2.064 1.011-2.24 1.086-6.799-7.82-4.609-8.994l2.083-1.026-3.493-6.817-2.106 1.039c-7.202 3.755 4.233 25.982 11.6 22.615.121-.055 2.102-1.029 2.11-1.033z"/>
    </symbol>
    <symbol id="mail" viewBox="0 0 24 24">
        <path d="M9,2.289l-9,0l9,5.63l9,-5.63l-9,0l0,0Z" /><path d="M9,11.395l-9,-5.63l0,9.946l18,0l0,-9.946l-9,5.63Z" />
    </symbol>
</svg>