<svg width="100%" height="100%" viewBox="0 0 1260 405" version="1.1" xmlns="http://www.w3.org/2000/svg" xmlns:xlink="http://www.w3.org/1999/xlink" xml:space="preserve" style="fill-rule:evenodd;clip-rule:evenodd;stroke-linejoin:round;stroke-miterlimit:1.41421;"><path d="M115.363,205.996c0,3.703 3.002,6.706 6.706,6.706c3.703,0 6.705,-3.003 6.705,-6.706c0,-3.704 -3.002,-6.706 -6.705,-6.706c-3.704,0 -6.706,3.002 -6.706,6.706" style="fill:#5686fd;fill-rule:nonzero;"/><path d="M752.564,79.205l0.108,0.002l0.107,0.004l0.107,0.004l0.106,0.006l0.107,0.008l0.106,0.009l0.105,0.01l0.106,0.011l0.105,0.013l0.105,0.014l0.104,0.015l0.104,0.017l0.103,0.017l0.104,0.019l0.102,0.021l0.102,0.021l0.102,0.023l0.102,0.024l0.1,0.026l0.101,0.026l0.1,0.028l0.099,0.029l0.1,0.03l0.098,0.031l0.097,0.032l0.098,0.034l0.097,0.035l0.096,0.036l0.095,0.037l0.096,0.038l0.094,0.039l0.094,0.041l0.093,0.041l0.093,0.043l0.092,0.044l0.092,0.044l0.09,0.046l0.09,0.047l0.09,0.048l0.089,0.049l0.088,0.05l0.087,0.051l0.087,0.052l0.086,0.053l0.085,0.054l0.085,0.055l0.085,0.056l0.082,0.057l0.083,0.058l0.082,0.059l0.08,0.059l0.08,0.061l0.08,0.062l0.079,0.062l0.077,0.064l0.078,0.065l0.076,0.065l0.075,0.066l0.075,0.067l0.074,0.068l0.073,0.069l0.072,0.069l0.072,0.071l0.07,0.071l0.07,0.073l0.069,0.072l0.068,0.075l0.067,0.074l0.065,0.075l0.066,0.077l0.065,0.078l0.063,0.077l0.062,0.078l0.062,0.08l0.062,0.081l0.059,0.081l0.059,0.081l0.058,0.082l0.056,0.083l0.056,0.084l0.056,0.086l0.054,0.085l0.053,0.086l0.052,0.086l0.051,0.088l0.05,0.088l0.048,0.088l0.048,0.09l0.048,0.091l0.045,0.09l0.045,0.091l0.044,0.094l0.042,0.091l0.041,0.093l0.041,0.095l0.04,0.095l0.038,0.094l0.036,0.095l0.036,0.097l0.035,0.097l0.034,0.097l0.032,0.098l0.032,0.099l0.03,0.099l0.029,0.099l0.027,0.099l0.027,0.102l0.025,0.1l0.024,0.101l0.023,0.103l0.021,0.101l0.021,0.103l0.019,0.105l0.018,0.103l0.016,0.102l0.016,0.105l0.014,0.106l0.012,0.104l0.012,0.105l0.01,0.106l0.008,0.106l0.008,0.107l0.006,0.107l0.005,0.106l0.003,0.106l0.002,0.109l0.001,0.107l-0.001,0.108l-0.002,0.109l-0.003,0.106l-0.005,0.106l-0.006,0.107l-0.008,0.107l-0.008,0.106l-0.01,0.105l-0.012,0.106l-0.012,0.104l-0.014,0.105l-0.016,0.105l-0.016,0.103l-0.018,0.103l-0.019,0.105l-0.021,0.102l-0.021,0.102l-0.023,0.102l-0.024,0.101l-0.025,0.101l-0.027,0.102l-0.027,0.099l-0.029,0.098l-0.03,0.1l-0.032,0.099l-0.032,0.098l-0.034,0.097l-0.035,0.097l-0.036,0.096l-0.036,0.095l-0.038,0.095l-0.04,0.095l-0.041,0.095l-0.041,0.092l-0.042,0.092l-0.044,0.093l-0.045,0.091l-0.045,0.091l-0.048,0.091l-0.048,0.089l-0.048,0.088l-0.05,0.089l-0.052,0.088l-0.051,0.086l-0.053,0.086l-0.054,0.085l-0.056,0.086l-0.056,0.084l-0.056,0.082l-0.058,0.083l-0.059,0.081l-0.059,0.081l-0.062,0.081l-0.062,0.08l-0.062,0.078l-0.063,0.077l-0.065,0.078l-0.066,0.077l-0.065,0.074l-0.067,0.075l-0.068,0.074l-0.069,0.073l-0.07,0.072l-0.07,0.072l-0.072,0.07l-0.072,0.07l-0.073,0.069l-0.074,0.068l-0.075,0.067l-0.075,0.066l-0.076,0.065l-0.078,0.065l-0.077,0.063l-0.079,0.063l-0.08,0.062l-0.08,0.06l-0.08,0.06l-0.082,0.059l-0.083,0.058l-0.082,0.056l-0.085,0.057l-0.085,0.055l-0.085,0.054l-0.086,0.053l-0.087,0.052l-0.087,0.051l-0.088,0.05l-0.089,0.049l-0.09,0.048l-0.09,0.047l-0.09,0.045l-0.092,0.045l-0.092,0.044l-0.093,0.042l-0.093,0.042l-0.094,0.04l-0.094,0.04l-0.096,0.038l-0.095,0.037l-0.096,0.036l-0.097,0.034l-0.098,0.034l-0.097,0.032l-0.098,0.032l-0.1,0.03l-0.099,0.029l-0.1,0.027l-0.101,0.027l-0.1,0.025l-0.102,0.024l-0.102,0.023l-0.102,0.022l-0.102,0.02l-0.104,0.019l-0.103,0.018l-0.104,0.017l-0.104,0.015l-0.105,0.014l-0.105,0.013l-0.106,0.011l-0.105,0.01l-0.106,0.009l-0.107,0.007l-0.106,0.006l-0.107,0.005l-0.107,0.003l-0.108,0.002l-0.107,0.001l-0.108,-0.001l-0.107,-0.002l-0.108,-0.003l-0.107,-0.005l-0.106,-0.006l-0.106,-0.007l-0.106,-0.009l-0.106,-0.01l-0.106,-0.011l-0.105,-0.013l-0.104,-0.014l-0.105,-0.015l-0.104,-0.017l-0.103,-0.018l-0.103,-0.019l-0.103,-0.02l-0.102,-0.022l-0.102,-0.023l-0.101,-0.024l-0.101,-0.025l-0.101,-0.026l-0.099,-0.028l-0.1,-0.029l-0.099,-0.03l-0.099,-0.032l-0.097,-0.032l-0.097,-0.033l-0.097,-0.035l-0.097,-0.036l-0.095,-0.037l-0.095,-0.038l-0.095,-0.04l-0.094,-0.04l-0.093,-0.042l-0.093,-0.042l-0.092,-0.044l-0.091,-0.045l-0.091,-0.045l-0.09,-0.047l-0.09,-0.048l-0.088,-0.049l-0.089,-0.05l-0.087,-0.051l-0.087,-0.052l-0.086,-0.053l-0.085,-0.054l-0.085,-0.055l-0.084,-0.056l-0.083,-0.057l-0.082,-0.058l-0.083,-0.059l-0.08,-0.06l-0.08,-0.06l-0.08,-0.062l-0.079,-0.063l-0.077,-0.063l-0.078,-0.064l-0.076,-0.066l-0.076,-0.066l-0.074,-0.067l-0.074,-0.068l-0.073,-0.069l-0.073,-0.07l-0.071,-0.07l-0.07,-0.072l-0.07,-0.071l-0.069,-0.074l-0.068,-0.074l-0.066,-0.074l-0.067,-0.076l-0.065,-0.076l-0.065,-0.077l-0.063,-0.078l-0.063,-0.079l-0.061,-0.079l-0.061,-0.08l-0.061,-0.082l-0.058,-0.081l-0.058,-0.083l-0.056,-0.082l-0.056,-0.084l-0.056,-0.086l-0.054,-0.085l-0.053,-0.086l-0.052,-0.086l-0.051,-0.088l-0.05,-0.089l-0.049,-0.088l-0.047,-0.089l-0.048,-0.091l-0.045,-0.091l-0.045,-0.091l-0.044,-0.092l-0.042,-0.093l-0.042,-0.093l-0.04,-0.094l-0.039,-0.094l-0.039,-0.096l-0.037,-0.096l-0.036,-0.095l-0.034,-0.097l-0.034,-0.097l-0.032,-0.098l-0.031,-0.098l-0.031,-0.1l-0.029,-0.099l-0.028,-0.1l-0.026,-0.101l-0.025,-0.101l-0.024,-0.101l-0.023,-0.102l-0.022,-0.103l-0.02,-0.101l-0.019,-0.104l-0.018,-0.103l-0.017,-0.105l-0.015,-0.104l-0.014,-0.104l-0.012,-0.105l-0.012,-0.106l-0.01,-0.106l-0.009,-0.106l-0.007,-0.106l-0.006,-0.106l-0.005,-0.107l-0.003,-0.108l-0.002,-0.106l-0.001,-0.109l0.001,-0.108l0.002,-0.107l0.003,-0.107l0.005,-0.107l0.006,-0.106l0.007,-0.106l0.009,-0.106l0.01,-0.107l0.012,-0.105l0.012,-0.106l0.014,-0.104l0.015,-0.103l0.017,-0.105l0.018,-0.104l0.019,-0.103l0.02,-0.102l0.022,-0.102l0.023,-0.103l0.024,-0.101l0.025,-0.1l0.026,-0.101l0.028,-0.1l0.029,-0.1l0.031,-0.099l0.031,-0.098l0.032,-0.098l0.034,-0.097l0.034,-0.097l0.036,-0.095l0.037,-0.097l0.039,-0.095l0.039,-0.094l0.04,-0.094l0.042,-0.094l0.042,-0.092l0.044,-0.093l0.045,-0.091l0.045,-0.09l0.048,-0.091l0.047,-0.09l0.049,-0.088l0.05,-0.088l0.051,-0.088l0.052,-0.086l0.053,-0.086l0.054,-0.085l0.056,-0.086l0.056,-0.084l0.056,-0.083l0.058,-0.082l0.058,-0.081l0.061,-0.082l0.061,-0.08l0.061,-0.079l0.063,-0.079l0.063,-0.078l0.065,-0.077l0.065,-0.076l0.067,-0.076l0.066,-0.074l0.068,-0.075l0.069,-0.073l0.07,-0.072l0.07,-0.071l0.071,-0.071l0.073,-0.069l0.073,-0.069l0.074,-0.068l0.074,-0.067l0.076,-0.066l0.076,-0.066l0.078,-0.064l0.077,-0.064l0.079,-0.062l0.08,-0.062l0.08,-0.061l0.08,-0.059l0.083,-0.06l0.082,-0.057l0.083,-0.057l0.084,-0.056l0.085,-0.055l0.085,-0.054l0.086,-0.053l0.087,-0.052l0.087,-0.051l0.089,-0.05l0.088,-0.049l0.09,-0.048l0.09,-0.047l0.091,-0.046l0.091,-0.045l0.092,-0.043l0.093,-0.043l0.093,-0.041l0.094,-0.041l0.095,-0.039l0.095,-0.038l0.095,-0.037l0.097,-0.036l0.097,-0.035l0.097,-0.034l0.097,-0.032l0.099,-0.031l0.099,-0.03l0.1,-0.029l0.099,-0.028l0.101,-0.026l0.101,-0.026l0.101,-0.024l0.102,-0.023l0.102,-0.021l0.103,-0.021l0.103,-0.019l0.103,-0.017l0.104,-0.017l0.105,-0.015l0.104,-0.014l0.105,-0.013l0.106,-0.011l0.106,-0.01l0.106,-0.009l0.106,-0.008l0.106,-0.006l0.107,-0.004l0.108,-0.004l0.107,-0.002l0.108,0l0.107,0Zm-0.148,5.25l-0.041,0.001l-0.041,0.001l-0.04,0.002l-0.041,0.002l-0.04,0.003l-0.04,0.003l-0.04,0.004l-0.039,0.004l-0.04,0.005l-0.039,0.005l-0.039,0.006l-0.038,0.006l-0.039,0.007l-0.038,0.007l-0.038,0.007l-0.038,0.008l-0.038,0.009l-0.038,0.009l-0.037,0.009l-0.037,0.01l-0.038,0.01l-0.036,0.011l-0.037,0.011l-0.036,0.012l-0.037,0.012l-0.036,0.012l-0.036,0.013l-0.035,0.013l-0.036,0.014l-0.035,0.014l-0.035,0.015l-0.035,0.015l-0.035,0.015l-0.034,0.016l-0.034,0.016l-0.034,0.017l-0.034,0.017l-0.034,0.017l-0.033,0.018l-0.033,0.018l-0.033,0.019l-0.032,0.019l-0.033,0.019l-0.032,0.02l-0.032,0.021l-0.032,0.02l-0.031,0.021l-0.031,0.021l-0.032,0.022l-0.029,0.022l-0.031,0.023l-0.03,0.023l-0.03,0.023l-0.029,0.023l-0.03,0.024l-0.029,0.024l-0.028,0.025l-0.029,0.025l-0.028,0.025l-0.028,0.025l-0.027,0.026l-0.027,0.026l-0.027,0.027l-0.027,0.027l-0.026,0.028l-0.026,0.027l-0.025,0.027l-0.026,0.029l-0.025,0.028l-0.024,0.029l-0.025,0.029l-0.023,0.029l-0.024,0.029l-0.023,0.031l-0.023,0.03l-0.022,0.029l-0.022,0.031l-0.022,0.032l-0.022,0.031l-0.021,0.032l-0.02,0.03l-0.02,0.032l-0.02,0.033l-0.02,0.032l-0.018,0.033l-0.019,0.032l-0.019,0.034l-0.017,0.034l-0.017,0.032l-0.018,0.034l-0.017,0.035l-0.016,0.034l-0.015,0.034l-0.016,0.035l-0.015,0.035l-0.015,0.035l-0.013,0.035l-0.014,0.035l-0.014,0.036l-0.012,0.036l-0.013,0.036l-0.012,0.037l-0.012,0.037l-0.011,0.036l-0.01,0.036l-0.011,0.037l-0.009,0.037l-0.01,0.038l-0.009,0.038l-0.008,0.037l-0.008,0.037l-0.008,0.04l-0.007,0.038l-0.007,0.039l-0.006,0.037l-0.005,0.04l-0.006,0.04l-0.004,0.039l-0.005,0.039l-0.003,0.039l-0.004,0.04l-0.002,0.04l-0.003,0.041l-0.002,0.04l-0.001,0.041l-0.001,0.042l0,0.04l0,0.04l0.001,0.043l0.001,0.04l0.002,0.04l0.003,0.041l0.002,0.041l0.004,0.04l0.003,0.039l0.005,0.039l0.004,0.039l0.006,0.04l0.005,0.039l0.006,0.038l0.007,0.039l0.007,0.038l0.008,0.039l0.008,0.038l0.008,0.037l0.009,0.038l0.01,0.038l0.009,0.037l0.011,0.037l0.01,0.036l0.011,0.036l0.012,0.037l0.012,0.037l0.013,0.036l0.012,0.035l0.014,0.037l0.014,0.035l0.013,0.035l0.015,0.035l0.015,0.035l0.016,0.035l0.015,0.034l0.016,0.034l0.017,0.034l0.018,0.034l0.017,0.033l0.017,0.033l0.019,0.034l0.019,0.033l0.018,0.032l0.02,0.033l0.02,0.033l0.02,0.031l0.02,0.031l0.021,0.031l0.022,0.032l0.022,0.031l0.022,0.031l0.022,0.03l0.023,0.03l0.023,0.031l0.024,0.029l0.023,0.029l0.025,0.029l0.024,0.029l0.025,0.028l0.026,0.028l0.025,0.028l0.026,0.027l0.026,0.028l0.027,0.027l0.027,0.026l0.027,0.026l0.027,0.026l0.028,0.026l0.028,0.025l0.029,0.025l0.028,0.024l0.029,0.024l0.03,0.025l0.029,0.023l0.03,0.023l0.03,0.023l0.031,0.023l0.029,0.021l0.032,0.022l0.031,0.022l0.031,0.02l0.032,0.021l0.032,0.02l0.032,0.02l0.033,0.02l0.032,0.019l0.033,0.018l0.033,0.019l0.033,0.017l0.034,0.018l0.034,0.017l0.034,0.016l0.034,0.017l0.035,0.016l0.034,0.015l0.035,0.015l0.035,0.014l0.035,0.015l0.036,0.013l0.035,0.014l0.036,0.012l0.036,0.013l0.037,0.012l0.036,0.012l0.037,0.011l0.036,0.01l0.038,0.011l0.037,0.01l0.037,0.009l0.038,0.009l0.038,0.008l0.038,0.008l0.038,0.008l0.038,0.007l0.039,0.007l0.038,0.006l0.039,0.005l0.039,0.006l0.04,0.004l0.039,0.005l0.04,0.004l0.04,0.003l0.04,0.003l0.041,0.002l0.04,0.002l0.041,0.001l0.041,0.001l0.041,0l0.041,0l0.041,-0.001l0.04,-0.001l0.041,-0.002l0.04,-0.002l0.041,-0.003l0.039,-0.003l0.04,-0.004l0.04,-0.005l0.039,-0.004l0.039,-0.005l0.039,-0.006l0.039,-0.006l0.038,-0.007l0.039,-0.007l0.037,-0.008l0.039,-0.008l0.037,-0.008l0.038,-0.009l0.037,-0.009l0.037,-0.01l0.037,-0.01l0.038,-0.011l0.036,-0.011l0.036,-0.012l0.037,-0.012l0.036,-0.012l0.035,-0.013l0.036,-0.014l0.036,-0.013l0.035,-0.015l0.035,-0.014l0.035,-0.015l0.034,-0.015l0.035,-0.016l0.034,-0.016l0.034,-0.017l0.034,-0.017l0.034,-0.018l0.033,-0.017l0.032,-0.019l0.034,-0.018l0.032,-0.019l0.033,-0.02l0.032,-0.02l0.032,-0.02l0.032,-0.021l0.03,-0.02l0.032,-0.022l0.031,-0.021l0.03,-0.022l0.031,-0.023l0.03,-0.023l0.03,-0.023l0.029,-0.023l0.03,-0.025l0.028,-0.023l0.029,-0.025l0.029,-0.025l0.028,-0.025l0.028,-0.026l0.027,-0.026l0.027,-0.026l0.027,-0.026l0.027,-0.027l0.026,-0.027l0.026,-0.028l0.025,-0.028l0.026,-0.028l0.025,-0.029l0.024,-0.028l0.024,-0.028l0.024,-0.03l0.024,-0.03l0.023,-0.03l0.022,-0.029l0.023,-0.031l0.022,-0.031l0.022,-0.031l0.022,-0.032l0.021,-0.031l0.02,-0.031l0.02,-0.031l0.02,-0.033l0.019,-0.033l0.019,-0.032l0.019,-0.033l0.018,-0.034l0.018,-0.033l0.017,-0.033l0.017,-0.034l0.017,-0.034l0.016,-0.033l0.016,-0.035l0.016,-0.036l0.015,-0.034l0.014,-0.034l0.014,-0.036l0.014,-0.036l0.013,-0.036l0.013,-0.035l0.013,-0.036l0.012,-0.037l0.011,-0.036l0.011,-0.036l0.011,-0.037l0.011,-0.039l0.009,-0.035l0.01,-0.038l0.009,-0.038l0.008,-0.037l0.008,-0.039l0.008,-0.038l0.007,-0.037l0.006,-0.039l0.007,-0.04l0.005,-0.038l0.005,-0.039l0.005,-0.04l0.004,-0.039l0.004,-0.04l0.004,-0.04l0.002,-0.04l0.003,-0.039l0.001,-0.042l0.002,-0.042l0,-0.039l0.001,-0.042l-0.001,-0.041l0,-0.04l-0.002,-0.042l-0.001,-0.041l-0.003,-0.04l-0.002,-0.039l-0.004,-0.04l-0.004,-0.04l-0.004,-0.039l-0.005,-0.041l-0.005,-0.038l-0.005,-0.038l-0.007,-0.041l-0.006,-0.038l-0.007,-0.037l-0.008,-0.038l-0.008,-0.039l-0.008,-0.037l-0.009,-0.038l-0.01,-0.038l-0.009,-0.036l-0.011,-0.038l-0.011,-0.038l-0.011,-0.036l-0.011,-0.035l-0.012,-0.037l-0.013,-0.036l-0.013,-0.036l-0.013,-0.035l-0.014,-0.036l-0.014,-0.036l-0.014,-0.034l-0.015,-0.034l-0.016,-0.036l-0.016,-0.035l-0.016,-0.033l-0.017,-0.035l-0.017,-0.034l-0.017,-0.032l-0.018,-0.034l-0.018,-0.034l-0.019,-0.032l-0.019,-0.033l-0.019,-0.032l-0.02,-0.033l-0.02,-0.032l-0.02,-0.03l-0.021,-0.032l-0.022,-0.031l-0.022,-0.032l-0.022,-0.031l-0.023,-0.03l-0.022,-0.029l-0.023,-0.03l-0.024,-0.03l-0.024,-0.03l-0.024,-0.028l-0.024,-0.028l-0.025,-0.03l-0.026,-0.028l-0.025,-0.027l-0.026,-0.028l-0.026,-0.027l-0.027,-0.027l-0.027,-0.027l-0.027,-0.026l-0.027,-0.026l-0.028,-0.025l-0.028,-0.025l-0.029,-0.025l-0.029,-0.025l-0.028,-0.024l-0.03,-0.024l-0.029,-0.023l-0.03,-0.023l-0.03,-0.023l-0.031,-0.023l-0.03,-0.022l-0.031,-0.022l-0.032,-0.021l-0.03,-0.021l-0.032,-0.02l-0.032,-0.021l-0.032,-0.02l-0.033,-0.019l-0.032,-0.019l-0.034,-0.019l-0.032,-0.018l-0.033,-0.018l-0.034,-0.017l-0.034,-0.017l-0.034,-0.017l-0.034,-0.016l-0.034,-0.016l-0.035,-0.015l-0.035,-0.015l-0.035,-0.015l-0.035,-0.014l-0.036,-0.014l-0.036,-0.013l-0.035,-0.013l-0.036,-0.012l-0.037,-0.012l-0.036,-0.012l-0.036,-0.011l-0.038,-0.011l-0.037,-0.01l-0.037,-0.01l-0.037,-0.009l-0.038,-0.009l-0.037,-0.009l-0.039,-0.008l-0.037,-0.007l-0.039,-0.007l-0.038,-0.007l-0.039,-0.006l-0.039,-0.006l-0.039,-0.005l-0.039,-0.005l-0.04,-0.004l-0.04,-0.004l-0.039,-0.003l-0.041,-0.003l-0.04,-0.002l-0.041,-0.002l-0.04,-0.001l-0.041,-0.001l-0.041,0l-0.041,0Z" style="fill:#fbb03b;"/><path d="M68.771,190.26c0,2.217 1.798,4.015 4.015,4.015c2.217,0 4.015,-1.798 4.015,-4.015c0,-2.218 -1.798,-4.016 -4.015,-4.016c-2.217,0 -4.015,1.798 -4.015,4.016" style="fill:#ed565c;fill-rule:nonzero;"/><path d="M1035.31,234.308c-5.84,-5.919 -5.777,-15.452 0.142,-21.293l10.576,10.718l-10.718,10.575Z" style="fill:#6ccbc3;fill-rule:nonzero;"/><path d="M895.362,328.121c0.949,-0.949 2.487,-0.949 3.436,0c0.948,0.949 0.948,2.487 0,3.436l-13.638,13.638c-0.949,0.949 -2.487,0.949 -3.436,0c-0.949,-0.949 -0.949,-2.487 0,-3.436l13.638,-13.638Z" style="fill:#5686fd;fill-rule:nonzero;"/><path d="M932.027,298.5c1.342,0 2.43,1.087 2.43,2.429c0,1.342 -1.088,2.429 -2.43,2.429l-10.647,0c-1.341,0 -2.429,-1.087 -2.429,-2.429c0,-1.342 1.088,-2.429 2.429,-2.429l10.647,0Z" style="fill:#ed565c;fill-rule:nonzero;"/><path d="M809.037,77.226c1.053,1.053 1.053,2.761 0,3.814c-1.053,1.053 -2.76,1.053 -3.813,0l-8.358,-8.357c-1.053,-1.053 -1.053,-2.761 0,-3.814c1.053,-1.053 2.76,-1.053 3.814,0l8.357,8.357Z" style="fill:#ed565c;fill-rule:nonzero;"/></svg>